<?xml version="1.0" encoding="UTF-8" standalone="no"?>
<!DOCTYPE svg PUBLIC "-//W3C//DTD SVG 1.1//EN"
 "http://www.w3.org/Graphics/SVG/1.1/DTD/svg11.dtd">
<!-- Generated by graphviz version 2.43.0 (0)
 -->
<!-- Title: root Pages: 1 -->
<svg width="722pt" height="888pt"
 viewBox="0.00 0.00 722.00 888.00" xmlns="http://www.w3.org/2000/svg" xmlns:xlink="http://www.w3.org/1999/xlink">
<g id="graph0" class="graph" transform="scale(1 1) rotate(0) translate(144 744)">
<title>root</title>
<polygon fill="white" stroke="transparent" points="-144,144 -144,-744 578,-744 578,144 -144,144"/>
<text text-anchor="middle" x="217" y="-7.6" font-family="Sans-Serif" font-size="13.00" fill="#2d3436">helm plone6&#45;classic&#45;nodb</text>
<g id="clust1" class="cluster">
<title>cluster_plone&#45;helm</title>
<path fill="#e0ecf4" stroke="#aeb6be" d="M20,-30C20,-30 414,-30 414,-30 420,-30 426,-36 426,-42 426,-42 426,-431 426,-431 426,-437 420,-443 414,-443 414,-443 20,-443 20,-443 14,-443 8,-437 8,-431 8,-431 8,-42 8,-42 8,-36 14,-30 20,-30"/>
<text text-anchor="middle" x="44" y="-431" font-family="Sans-Serif" font-size="10.00" fill="#2d3436">plone&#45;helm</text>
</g>
<g id="clust2" class="cluster">
<title>cluster_myplone&#45;backend</title>
<path fill="#9ebcda" stroke="#aeb6be" d="M178,-38C178,-38 256,-38 256,-38 262,-38 268,-44 268,-50 268,-50 268,-219 268,-219 268,-225 262,-231 256,-231 256,-231 178,-231 178,-231 172,-231 166,-225 166,-219 166,-219 166,-50 166,-50 166,-44 172,-38 178,-38"/>
<text text-anchor="middle" x="181.5" y="-219" font-family="Sans-Serif" font-size="10.00" fill="#2d3436">sts</text>
</g>
<!-- ebtmizjr -->
<g id="node1" class="node">
<title>ebtmizjr</title>
<image xlink:href="assets/apps/network/internet.png" width="101px" height="101px" preserveAspectRatio="xMinYMin meet" x="324.5" y="-585.5"/>
<text text-anchor="middle" x="375" y="-473.6" font-family="Sans-Serif" font-size="13.00" fill="#2d3436">Internet</text>
</g>
<!-- eaxpfloc -->
<g id="node2" class="node">
<title>eaxpfloc</title>
<image xlink:href="assets/k8s/network/ing.png" width="86px" height="86px" preserveAspectRatio="xMinYMin meet" x="332" y="-380"/>
<text text-anchor="middle" x="375" y="-261" font-family="Times,serif" font-size="10.00">myplone&#45;backend</text>
</g>
<!-- ebtmizjr&#45;&gt;eaxpfloc -->
<g id="edge1" class="edge">
<title>ebtmizjr&#45;&gt;eaxpfloc</title>
<path fill="none" stroke="#7b8894" d="M397.22,-469.77C399.06,-456.93 398.53,-443.83 395.64,-426.3"/>
<polygon fill="#7b8894" stroke="#7b8894" points="399.01,-425.29 393.78,-416.08 392.12,-426.54 399.01,-425.29"/>
<text text-anchor="middle" x="380.75" y="-444.82" font-family="Sans-Serif" font-size="6.00" fill="#2d3436">172.18.0.2</text>
</g>
<!-- uqgbrtey -->
<g id="node5" class="node">
<title>uqgbrtey</title>
<image xlink:href="assets/k8s/network/svc.png" width="86px" height="86px" preserveAspectRatio="xMinYMin meet" x="332" y="-168"/>
<text text-anchor="middle" x="375" y="-63" font-family="Times,serif" font-size="10.00">myplone&#45;backend</text>
</g>
<!-- eaxpfloc&#45;&gt;uqgbrtey -->
<g id="edge3" class="edge">
<title>eaxpfloc&#45;&gt;uqgbrtey</title>
<path fill="none" stroke="#7b8894" d="M397.65,-257.65C403.23,-233.87 404.73,-217.31 402.14,-200.44"/>
<polygon fill="#7b8894" stroke="#7b8894" points="405.52,-199.53 400.14,-190.41 398.66,-200.9 405.52,-199.53"/>
</g>
<!-- dsfhrmww -->
<g id="node3" class="node">
<title>dsfhrmww</title>
<image xlink:href="assets/k8s/compute/sts.png" width="86px" height="86px" preserveAspectRatio="xMinYMin meet" x="174" y="-380"/>
<text text-anchor="middle" x="217" y="-275" font-family="Times,serif" font-size="10.00">myplone&#45;backend</text>
</g>
<!-- bgxthoyb -->
<g id="node4" class="node">
<title>bgxthoyb</title>
<image xlink:href="assets/k8s/compute/pod.png" width="86px" height="86px" preserveAspectRatio="xMinYMin meet" x="174" y="-168"/>
<text text-anchor="middle" x="217" y="-60" font-family="Times,serif" font-size="10.00">myplone&#45;backend&#45;</text>
<text text-anchor="middle" x="217" y="-49" font-family="Times,serif" font-size="10.00">0</text>
</g>
<!-- dsfhrmww&#45;&gt;bgxthoyb -->
<g id="edge2" class="edge">
<title>dsfhrmww&#45;&gt;bgxthoyb</title>
<path fill="none" stroke="#7b8894" d="M217,-271.95C217,-247.43 217,-229.2 217,-214.42"/>
<polygon fill="#7b8894" stroke="#7b8894" points="220.5,-214.24 217,-204.24 213.5,-214.24 220.5,-214.24"/>
</g>
<!-- efjxtpoy -->
<g id="node6" class="node">
<title>efjxtpoy</title>
<image xlink:href="assets/k8s/network/svc.png" width="86px" height="86px" preserveAspectRatio="xMinYMin meet" x="16" y="-380"/>
<text text-anchor="middle" x="59" y="-275" font-family="Times,serif" font-size="10.00">myplone&#45;backend&#45;director</text>
</g>
</g>
</svg>
