<?xml version="1.0" encoding="UTF-8" standalone="no"?>
<!DOCTYPE svg PUBLIC "-//W3C//DTD SVG 1.1//EN"
 "http://www.w3.org/Graphics/SVG/1.1/DTD/svg11.dtd">
<!-- Generated by graphviz version 2.43.0 (0)
 -->
<!-- Title: root Pages: 1 -->
<svg width="738pt" height="887pt"
 viewBox="0.00 0.00 738.00 887.00" xmlns="http://www.w3.org/2000/svg" xmlns:xlink="http://www.w3.org/1999/xlink">
<g id="graph0" class="graph" transform="scale(1 1) rotate(0) translate(144 743)">
<title>root</title>
<polygon fill="white" stroke="transparent" points="-144,144 -144,-743 594,-743 594,144 -144,144"/>
<text text-anchor="middle" x="225" y="-7.6" font-family="Sans-Serif" font-size="13.00" fill="#2d3436">helm plone6&#45;volto&#45;zeo</text>
<g id="clust1" class="cluster">
<title>cluster_plone&#45;helm</title>
<path fill="#e0ecf4" stroke="#aeb6be" d="M20,-30C20,-30 430,-30 430,-30 436,-30 442,-36 442,-42 442,-42 442,-579 442,-579 442,-585 436,-591 430,-591 430,-591 20,-591 20,-591 14,-591 8,-585 8,-579 8,-579 8,-42 8,-42 8,-36 14,-30 20,-30"/>
<text text-anchor="middle" x="44" y="-579" font-family="Sans-Serif" font-size="10.00" fill="#2d3436">plone&#45;helm</text>
</g>
<g id="clust2" class="cluster">
<title>cluster_myplone&#45;plone6&#45;volto&#45;zeo&#45;backend</title>
<path fill="#9ebcda" stroke="#aeb6be" d="M28,-214C28,-214 106,-214 106,-214 112,-214 118,-220 118,-226 118,-226 118,-395 118,-395 118,-401 112,-407 106,-407 106,-407 28,-407 28,-407 22,-407 16,-401 16,-395 16,-395 16,-226 16,-226 16,-220 22,-214 28,-214"/>
<text text-anchor="middle" x="31.5" y="-395" font-family="Sans-Serif" font-size="10.00" fill="#2d3436">sts</text>
</g>
<g id="clust3" class="cluster">
<title>cluster_myplone&#45;plone6&#45;volto&#45;zeo&#45;frontend</title>
<path fill="#9ebcda" stroke="#aeb6be" d="M186,-214C186,-214 264,-214 264,-214 270,-214 276,-220 276,-226 276,-226 276,-395 276,-395 276,-401 270,-407 264,-407 264,-407 186,-407 186,-407 180,-407 174,-401 174,-395 174,-395 174,-226 174,-226 174,-220 180,-214 186,-214"/>
<text text-anchor="middle" x="189.5" y="-395" font-family="Sans-Serif" font-size="10.00" fill="#2d3436">sts</text>
</g>
<g id="clust4" class="cluster">
<title>cluster_myplone&#45;zeoserver</title>
<path fill="#9ebcda" stroke="#aeb6be" d="M344,-214C344,-214 422,-214 422,-214 428,-214 434,-220 434,-226 434,-226 434,-395 434,-395 434,-401 428,-407 422,-407 422,-407 344,-407 344,-407 338,-407 332,-401 332,-395 332,-395 332,-226 332,-226 332,-220 338,-214 344,-214"/>
<text text-anchor="middle" x="347.5" y="-395" font-family="Sans-Serif" font-size="10.00" fill="#2d3436">sts</text>
</g>
<!-- oeawojgo -->
<g id="node1" class="node">
<title>oeawojgo</title>
<image xlink:href="assets/k8s/compute/pod.png" width="86px" height="86px" preserveAspectRatio="xMinYMin meet" x="24" y="-344"/>
<text text-anchor="middle" x="67" y="-236" font-family="Times,serif" font-size="10.00">myplone&#45;plone6&#45;volto&#45;zeo&#45;backend&#45;</text>
<text text-anchor="middle" x="67" y="-225" font-family="Times,serif" font-size="10.00">0</text>
</g>
<!-- kpyfwolw -->
<g id="node2" class="node">
<title>kpyfwolw</title>
<image xlink:href="assets/k8s/network/svc.png" width="86px" height="86px" preserveAspectRatio="xMinYMin meet" x="24" y="-146"/>
<text text-anchor="middle" x="67" y="-41" font-family="Times,serif" font-size="10.00">myplone&#45;plone6&#45;volto&#45;zeo&#45;backend</text>
</g>
<!-- oeawojgo&#45;&gt;kpyfwolw -->
<g id="edge1" class="edge">
<title>oeawojgo&#45;&gt;kpyfwolw</title>
<path fill="none" stroke="#7b8894" d="M45.06,-211.69C42.12,-194.39 41.73,-181.34 43.89,-168.21"/>
<polygon fill="#7b8894" stroke="#7b8894" points="41.67,-212.58 46.96,-221.76 48.54,-211.29 41.67,-212.58"/>
</g>
<!-- fikxdzeg -->
<g id="node3" class="node">
<title>fikxdzeg</title>
<image xlink:href="assets/k8s/compute/pod.png" width="86px" height="86px" preserveAspectRatio="xMinYMin meet" x="182" y="-344"/>
<text text-anchor="middle" x="225" y="-236" font-family="Times,serif" font-size="10.00">myplone&#45;plone6&#45;volto&#45;zeo&#45;frontend&#45;</text>
<text text-anchor="middle" x="225" y="-225" font-family="Times,serif" font-size="10.00">0</text>
</g>
<!-- rytpxxjv -->
<g id="node4" class="node">
<title>rytpxxjv</title>
<image xlink:href="assets/k8s/network/svc.png" width="86px" height="86px" preserveAspectRatio="xMinYMin meet" x="182" y="-146"/>
<text text-anchor="middle" x="225" y="-41" font-family="Times,serif" font-size="10.00">myplone&#45;plone6&#45;volto&#45;zeo&#45;frontend</text>
</g>
<!-- fikxdzeg&#45;&gt;rytpxxjv -->
<g id="edge2" class="edge">
<title>fikxdzeg&#45;&gt;rytpxxjv</title>
<path fill="none" stroke="#7b8894" d="M225,-211.73C225,-193.22 225,-179.62 225,-168.04"/>
<polygon fill="#7b8894" stroke="#7b8894" points="221.5,-211.87 225,-221.87 228.5,-211.87 221.5,-211.87"/>
</g>
<!-- eyioffdc -->
<g id="node5" class="node">
<title>eyioffdc</title>
<image xlink:href="assets/k8s/compute/pod.png" width="86px" height="86px" preserveAspectRatio="xMinYMin meet" x="340" y="-344"/>
<text text-anchor="middle" x="383" y="-236" font-family="Times,serif" font-size="10.00">myplone&#45;zeoserver&#45;</text>
<text text-anchor="middle" x="383" y="-225" font-family="Times,serif" font-size="10.00">0</text>
</g>
<!-- zjhzcbah -->
<g id="node6" class="node">
<title>zjhzcbah</title>
<image xlink:href="assets/k8s/network/svc.png" width="86px" height="86px" preserveAspectRatio="xMinYMin meet" x="340" y="-146"/>
<text text-anchor="middle" x="383" y="-41" font-family="Times,serif" font-size="10.00">myplone&#45;zeoserver</text>
</g>
<!-- eyioffdc&#45;&gt;zjhzcbah -->
<g id="edge3" class="edge">
<title>eyioffdc&#45;&gt;zjhzcbah</title>
<path fill="none" stroke="#7b8894" d="M404.94,-211.69C407.88,-194.39 408.27,-181.34 406.11,-168.21"/>
<polygon fill="#7b8894" stroke="#7b8894" points="401.46,-211.29 403.04,-221.76 408.33,-212.58 401.46,-211.29"/>
</g>
<!-- pnhgcezj -->
<g id="node7" class="node">
<title>pnhgcezj</title>
<image xlink:href="assets/k8s/compute/sts.png" width="86px" height="86px" preserveAspectRatio="xMinYMin meet" x="340" y="-542"/>
<text text-anchor="middle" x="383" y="-437" font-family="Times,serif" font-size="10.00">myplone&#45;zeoserver</text>
</g>
<!-- pnhgcezj&#45;&gt;eyioffdc -->
<g id="edge4" class="edge">
<title>pnhgcezj&#45;&gt;eyioffdc</title>
<path fill="none" stroke="#7b8894" d="M407.02,-433.79C409.61,-420.23 409.44,-407.22 406.49,-390.23"/>
<polygon fill="#7b8894" stroke="#7b8894" points="409.91,-389.5 404.57,-380.35 403.04,-390.84 409.91,-389.5"/>
</g>
<!-- tqcpfkle -->
<g id="node8" class="node">
<title>tqcpfkle</title>
<image xlink:href="assets/k8s/compute/sts.png" width="86px" height="86px" preserveAspectRatio="xMinYMin meet" x="182" y="-542"/>
<text text-anchor="middle" x="225" y="-437" font-family="Times,serif" font-size="10.00">myplone&#45;plone6&#45;volto&#45;zeo&#45;frontend</text>
</g>
<!-- tqcpfkle&#45;&gt;fikxdzeg -->
<g id="edge5" class="edge">
<title>tqcpfkle&#45;&gt;fikxdzeg</title>
<path fill="none" stroke="#7b8894" d="M225,-433.95C225,-422.37 225,-408.75 225,-390.21"/>
<polygon fill="#7b8894" stroke="#7b8894" points="228.5,-390.06 225,-380.06 221.5,-390.06 228.5,-390.06"/>
</g>
<!-- gptrczzr -->
<g id="node9" class="node">
<title>gptrczzr</title>
<image xlink:href="assets/k8s/compute/sts.png" width="86px" height="86px" preserveAspectRatio="xMinYMin meet" x="24" y="-542"/>
<text text-anchor="middle" x="67" y="-437" font-family="Times,serif" font-size="10.00">myplone&#45;plone6&#45;volto&#45;zeo&#45;backend</text>
</g>
<!-- gptrczzr&#45;&gt;oeawojgo -->
<g id="edge6" class="edge">
<title>gptrczzr&#45;&gt;oeawojgo</title>
<path fill="none" stroke="#7b8894" d="M42.98,-433.79C40.39,-420.23 40.56,-407.22 43.51,-390.23"/>
<polygon fill="#7b8894" stroke="#7b8894" points="46.96,-390.84 45.43,-380.35 40.09,-389.5 46.96,-390.84"/>
</g>
</g>
</svg>
