<?xml version="1.0" encoding="UTF-8" standalone="no"?>
<!DOCTYPE svg PUBLIC "-//W3C//DTD SVG 1.1//EN"
 "http://www.w3.org/Graphics/SVG/1.1/DTD/svg11.dtd">
<!-- Generated by graphviz version 2.43.0 (0)
 -->
<!-- Title: root Pages: 1 -->
<svg width="1038pt" height="888pt"
 viewBox="0.00 0.00 1038.00 888.00" xmlns="http://www.w3.org/2000/svg" xmlns:xlink="http://www.w3.org/1999/xlink">
<g id="graph0" class="graph" transform="scale(1 1) rotate(0) translate(144 744)">
<title>root</title>
<polygon fill="white" stroke="transparent" points="-144,144 -144,-744 894,-744 894,144 -144,144"/>
<text text-anchor="middle" x="375" y="-7.6" font-family="Sans-Serif" font-size="13.00" fill="#2d3436">helm plone6&#45;classic&#45;pg</text>
<g id="clust1" class="cluster">
<title>cluster_plone&#45;helm</title>
<path fill="#e0ecf4" stroke="#aeb6be" d="M20,-30C20,-30 730,-30 730,-30 736,-30 742,-36 742,-42 742,-42 742,-431 742,-431 742,-437 736,-443 730,-443 730,-443 20,-443 20,-443 14,-443 8,-437 8,-431 8,-431 8,-42 8,-42 8,-36 14,-30 20,-30"/>
<text text-anchor="middle" x="44" y="-431" font-family="Sans-Serif" font-size="10.00" fill="#2d3436">plone&#45;helm</text>
</g>
<g id="clust2" class="cluster">
<title>cluster_myplone&#45;backend</title>
<path fill="#9ebcda" stroke="#aeb6be" d="M336,-38C336,-38 414,-38 414,-38 420,-38 426,-44 426,-50 426,-50 426,-219 426,-219 426,-225 420,-231 414,-231 414,-231 336,-231 336,-231 330,-231 324,-225 324,-219 324,-219 324,-50 324,-50 324,-44 330,-38 336,-38"/>
<text text-anchor="middle" x="339.5" y="-219" font-family="Sans-Serif" font-size="10.00" fill="#2d3436">sts</text>
</g>
<g id="clust3" class="cluster">
<title>cluster_myplone&#45;postgresql</title>
<path fill="#9ebcda" stroke="#aeb6be" d="M494,-38C494,-38 572,-38 572,-38 578,-38 584,-44 584,-50 584,-50 584,-219 584,-219 584,-225 578,-231 572,-231 572,-231 494,-231 494,-231 488,-231 482,-225 482,-219 482,-219 482,-50 482,-50 482,-44 488,-38 494,-38"/>
<text text-anchor="middle" x="497.5" y="-219" font-family="Sans-Serif" font-size="10.00" fill="#2d3436">sts</text>
</g>
<!-- agfwurbt -->
<g id="node1" class="node">
<title>agfwurbt</title>
<image xlink:href="assets/apps/network/internet.png" width="101px" height="101px" preserveAspectRatio="xMinYMin meet" x="640.5" y="-585.5"/>
<text text-anchor="middle" x="691" y="-473.6" font-family="Sans-Serif" font-size="13.00" fill="#2d3436">Internet</text>
</g>
<!-- hqnfmkek -->
<g id="node2" class="node">
<title>hqnfmkek</title>
<image xlink:href="assets/k8s/network/ing.png" width="86px" height="86px" preserveAspectRatio="xMinYMin meet" x="648" y="-380"/>
<text text-anchor="middle" x="691" y="-261" font-family="Times,serif" font-size="10.00">myplone&#45;backend</text>
</g>
<!-- agfwurbt&#45;&gt;hqnfmkek -->
<g id="edge1" class="edge">
<title>agfwurbt&#45;&gt;hqnfmkek</title>
<path fill="none" stroke="#7b8894" d="M715.92,-469.82C719.23,-455.52 719.49,-442.58 716.72,-426.29"/>
<polygon fill="#7b8894" stroke="#7b8894" points="720.12,-425.42 714.74,-416.28 713.25,-426.77 720.12,-425.42"/>
<text text-anchor="middle" x="701.53" y="-444.97" font-family="Sans-Serif" font-size="6.00" fill="#2d3436">172.19.0.2</text>
</g>
<!-- kfnaotpk -->
<g id="node7" class="node">
<title>kfnaotpk</title>
<image xlink:href="assets/k8s/network/svc.png" width="86px" height="86px" preserveAspectRatio="xMinYMin meet" x="648" y="-168"/>
<text text-anchor="middle" x="691" y="-63" font-family="Times,serif" font-size="10.00">myplone&#45;backend</text>
</g>
<!-- hqnfmkek&#45;&gt;kfnaotpk -->
<g id="edge4" class="edge">
<title>hqnfmkek&#45;&gt;kfnaotpk</title>
<path fill="none" stroke="#7b8894" d="M716.93,-257.79C722.6,-235.12 723.34,-218.74 719.18,-199.89"/>
<polygon fill="#7b8894" stroke="#7b8894" points="722.53,-198.89 716.64,-190.08 715.76,-200.64 722.53,-198.89"/>
</g>
<!-- bqogqwhn -->
<g id="node3" class="node">
<title>bqogqwhn</title>
<image xlink:href="assets/k8s/compute/sts.png" width="86px" height="86px" preserveAspectRatio="xMinYMin meet" x="490" y="-380"/>
<text text-anchor="middle" x="533" y="-275" font-family="Times,serif" font-size="10.00">myplone&#45;postgresql</text>
</g>
<!-- fbfvnhwa -->
<g id="node4" class="node">
<title>fbfvnhwa</title>
<image xlink:href="assets/k8s/compute/pod.png" width="86px" height="86px" preserveAspectRatio="xMinYMin meet" x="490" y="-168"/>
<text text-anchor="middle" x="533" y="-60" font-family="Times,serif" font-size="10.00">myplone&#45;postgresql&#45;</text>
<text text-anchor="middle" x="533" y="-49" font-family="Times,serif" font-size="10.00">0</text>
</g>
<!-- bqogqwhn&#45;&gt;fbfvnhwa -->
<g id="edge2" class="edge">
<title>bqogqwhn&#45;&gt;fbfvnhwa</title>
<path fill="none" stroke="#7b8894" d="M552.14,-271.56C558.6,-247.26 561.67,-230.1 561.35,-214.38"/>
<polygon fill="#7b8894" stroke="#7b8894" points="564.83,-213.94 560.65,-204.2 557.84,-214.42 564.83,-213.94"/>
</g>
<!-- nyefwyxb -->
<g id="node5" class="node">
<title>nyefwyxb</title>
<image xlink:href="assets/k8s/compute/sts.png" width="86px" height="86px" preserveAspectRatio="xMinYMin meet" x="332" y="-380"/>
<text text-anchor="middle" x="375" y="-275" font-family="Times,serif" font-size="10.00">myplone&#45;backend</text>
</g>
<!-- shxmbrqc -->
<g id="node6" class="node">
<title>shxmbrqc</title>
<image xlink:href="assets/k8s/compute/pod.png" width="86px" height="86px" preserveAspectRatio="xMinYMin meet" x="332" y="-168"/>
<text text-anchor="middle" x="375" y="-60" font-family="Times,serif" font-size="10.00">myplone&#45;backend&#45;</text>
<text text-anchor="middle" x="375" y="-49" font-family="Times,serif" font-size="10.00">0</text>
</g>
<!-- nyefwyxb&#45;&gt;shxmbrqc -->
<g id="edge3" class="edge">
<title>nyefwyxb&#45;&gt;shxmbrqc</title>
<path fill="none" stroke="#7b8894" d="M375,-271.95C375,-247.43 375,-229.2 375,-214.42"/>
<polygon fill="#7b8894" stroke="#7b8894" points="378.5,-214.24 375,-204.24 371.5,-214.24 378.5,-214.24"/>
</g>
<!-- abptmief -->
<g id="node8" class="node">
<title>abptmief</title>
<image xlink:href="assets/k8s/network/svc.png" width="86px" height="86px" preserveAspectRatio="xMinYMin meet" x="174" y="-380"/>
<text text-anchor="middle" x="217" y="-275" font-family="Times,serif" font-size="10.00">myplone&#45;postgresql</text>
</g>
<!-- fyfdhrxu -->
<g id="node9" class="node">
<title>fyfdhrxu</title>
<image xlink:href="assets/k8s/network/svc.png" width="86px" height="86px" preserveAspectRatio="xMinYMin meet" x="16" y="-380"/>
<text text-anchor="middle" x="59" y="-275" font-family="Times,serif" font-size="10.00">myplone&#45;backend&#45;director</text>
</g>
</g>
</svg>
