<?xml version="1.0" encoding="UTF-8" standalone="no"?>
<!DOCTYPE svg PUBLIC "-//W3C//DTD SVG 1.1//EN"
 "http://www.w3.org/Graphics/SVG/1.1/DTD/svg11.dtd">
<!-- Generated by graphviz version 2.43.0 (0)
 -->
<!-- Title: root Pages: 1 -->
<svg width="1196pt" height="1099pt"
 viewBox="0.00 0.00 1196.00 1099.00" xmlns="http://www.w3.org/2000/svg" xmlns:xlink="http://www.w3.org/1999/xlink">
<g id="graph0" class="graph" transform="scale(1 1) rotate(0) translate(144 955)">
<title>root</title>
<polygon fill="white" stroke="transparent" points="-144,144 -144,-955 1052,-955 1052,144 -144,144"/>
<text text-anchor="middle" x="454" y="-7.6" font-family="Sans-Serif" font-size="13.00" fill="#2d3436">helm plone6&#45;volto&#45;pg</text>
<g id="clust1" class="cluster">
<title>cluster_plone&#45;helm</title>
<path fill="#e0ecf4" stroke="#aeb6be" d="M20,-30C20,-30 888,-30 888,-30 894,-30 900,-36 900,-42 900,-42 900,-791 900,-791 900,-797 894,-803 888,-803 888,-803 20,-803 20,-803 14,-803 8,-797 8,-791 8,-791 8,-42 8,-42 8,-36 14,-30 20,-30"/>
<text text-anchor="middle" x="44" y="-791" font-family="Sans-Serif" font-size="10.00" fill="#2d3436">plone&#45;helm</text>
</g>
<g id="clust2" class="cluster">
<title>cluster_myplone&#45;backend</title>
<path fill="#9ebcda" stroke="#aeb6be" d="M802,-426C802,-426 880,-426 880,-426 886,-426 892,-432 892,-438 892,-438 892,-607 892,-607 892,-613 886,-619 880,-619 880,-619 802,-619 802,-619 796,-619 790,-613 790,-607 790,-607 790,-438 790,-438 790,-432 796,-426 802,-426"/>
<text text-anchor="middle" x="805.5" y="-607" font-family="Sans-Serif" font-size="10.00" fill="#2d3436">sts</text>
</g>
<g id="clust3" class="cluster">
<title>cluster_myplone&#45;frontend&#45;5f974789f5</title>
<path fill="#9ebcda" stroke="#aeb6be" d="M644,-214C644,-214 722,-214 722,-214 728,-214 734,-220 734,-226 734,-226 734,-395 734,-395 734,-401 728,-407 722,-407 722,-407 644,-407 644,-407 638,-407 632,-401 632,-395 632,-395 632,-226 632,-226 632,-220 638,-214 644,-214"/>
<text text-anchor="middle" x="645" y="-395" font-family="Sans-Serif" font-size="10.00" fill="#2d3436">rs</text>
</g>
<g id="clust4" class="cluster">
<title>cluster_myplone&#45;postgresql</title>
<path fill="#9ebcda" stroke="#aeb6be" d="M486,-426C486,-426 564,-426 564,-426 570,-426 576,-432 576,-438 576,-438 576,-607 576,-607 576,-613 570,-619 564,-619 564,-619 486,-619 486,-619 480,-619 474,-613 474,-607 474,-607 474,-438 474,-438 474,-432 480,-426 486,-426"/>
<text text-anchor="middle" x="489.5" y="-607" font-family="Sans-Serif" font-size="10.00" fill="#2d3436">sts</text>
</g>
<!-- bvxdcadc -->
<g id="node1" class="node">
<title>bvxdcadc</title>
<image xlink:href="assets/k8s/compute/rs.png" width="86px" height="86px" preserveAspectRatio="xMinYMin meet" x="640" y="-556"/>
<text text-anchor="middle" x="683" y="-462" font-family="Times,serif" font-size="10.00">myplone&#45;frontend&#45;</text>
<text text-anchor="middle" x="683" y="-451" font-family="Times,serif" font-size="10.00">5f974789f5</text>
</g>
<!-- vghdplpr -->
<g id="node2" class="node">
<title>vghdplpr</title>
<image xlink:href="assets/k8s/compute/pod.png" width="86px" height="86px" preserveAspectRatio="xMinYMin meet" x="640" y="-344"/>
<text text-anchor="middle" x="683" y="-247" font-family="Times,serif" font-size="10.00">myplone&#45;frontend&#45;</text>
<text text-anchor="middle" x="683" y="-236" font-family="Times,serif" font-size="10.00">5f974789f5&#45;</text>
<text text-anchor="middle" x="683" y="-225" font-family="Times,serif" font-size="10.00">xsdms</text>
</g>
<!-- bvxdcadc&#45;&gt;vghdplpr -->
<g id="edge1" class="edge">
<title>bvxdcadc&#45;&gt;vghdplpr</title>
<path fill="none" stroke="#7b8894" d="M707.2,-447.9C714.26,-425.19 716.39,-408.72 713.57,-390.04"/>
<polygon fill="#7b8894" stroke="#7b8894" points="716.97,-389.19 711.64,-380.03 710.09,-390.51 716.97,-389.19"/>
</g>
<!-- kmsgdduj -->
<g id="node5" class="node">
<title>kmsgdduj</title>
<image xlink:href="assets/k8s/network/svc.png" width="86px" height="86px" preserveAspectRatio="xMinYMin meet" x="640" y="-146"/>
<text text-anchor="middle" x="683" y="-41" font-family="Times,serif" font-size="10.00">myplone&#45;frontend</text>
</g>
<!-- vghdplpr&#45;&gt;kmsgdduj -->
<g id="edge3" class="edge">
<title>vghdplpr&#45;&gt;kmsgdduj</title>
<path fill="none" stroke="#7b8894" d="M701.98,-211.52C704.74,-193.87 705.38,-180.76 703.91,-168.27"/>
<polygon fill="#7b8894" stroke="#7b8894" points="698.45,-211.37 700.23,-221.81 705.35,-212.54 698.45,-211.37"/>
</g>
<!-- eenywzqi -->
<g id="node3" class="node">
<title>eenywzqi</title>
<image xlink:href="assets/k8s/compute/sts.png" width="86px" height="86px" preserveAspectRatio="xMinYMin meet" x="806" y="-754"/>
<text text-anchor="middle" x="849" y="-649" font-family="Times,serif" font-size="10.00">myplone&#45;backend</text>
</g>
<!-- zfjrbyhc -->
<g id="node4" class="node">
<title>zfjrbyhc</title>
<image xlink:href="assets/k8s/compute/pod.png" width="86px" height="86px" preserveAspectRatio="xMinYMin meet" x="798" y="-556"/>
<text text-anchor="middle" x="841" y="-448" font-family="Times,serif" font-size="10.00">myplone&#45;backend&#45;</text>
<text text-anchor="middle" x="841" y="-437" font-family="Times,serif" font-size="10.00">0</text>
</g>
<!-- eenywzqi&#45;&gt;zfjrbyhc -->
<g id="edge2" class="edge">
<title>eenywzqi&#45;&gt;zfjrbyhc</title>
<path fill="none" stroke="#7b8894" d="M870.3,-645.96C872.59,-632 872.03,-618.91 868.44,-601.96"/>
<polygon fill="#7b8894" stroke="#7b8894" points="871.82,-601.05 866.13,-592.12 865.01,-602.65 871.82,-601.05"/>
</g>
<!-- foqiosng -->
<g id="node6" class="node">
<title>foqiosng</title>
<image xlink:href="assets/k8s/compute/deploy.png" width="86px" height="86px" preserveAspectRatio="xMinYMin meet" x="648" y="-754"/>
<text text-anchor="middle" x="691" y="-649" font-family="Times,serif" font-size="10.00">myplone&#45;frontend</text>
</g>
<!-- foqiosng&#45;&gt;bvxdcadc -->
<g id="edge4" class="edge">
<title>foqiosng&#45;&gt;bvxdcadc</title>
<path fill="none" stroke="#7b8894" d="M709.42,-645.88C710.88,-629.87 708.8,-613.27 702.88,-587.91"/>
<polygon fill="#7b8894" stroke="#7b8894" points="706.27,-587.06 700.52,-578.16 699.47,-588.71 706.27,-587.06"/>
</g>
<!-- plbwhjxw -->
<g id="node7" class="node">
<title>plbwhjxw</title>
<image xlink:href="assets/k8s/compute/sts.png" width="86px" height="86px" preserveAspectRatio="xMinYMin meet" x="490" y="-754"/>
<text text-anchor="middle" x="533" y="-649" font-family="Times,serif" font-size="10.00">myplone&#45;postgresql</text>
</g>
<!-- imyptodz -->
<g id="node8" class="node">
<title>imyptodz</title>
<image xlink:href="assets/k8s/compute/pod.png" width="86px" height="86px" preserveAspectRatio="xMinYMin meet" x="482" y="-556"/>
<text text-anchor="middle" x="525" y="-448" font-family="Times,serif" font-size="10.00">myplone&#45;postgresql&#45;</text>
<text text-anchor="middle" x="525" y="-437" font-family="Times,serif" font-size="10.00">0</text>
</g>
<!-- plbwhjxw&#45;&gt;imyptodz -->
<g id="edge5" class="edge">
<title>plbwhjxw&#45;&gt;imyptodz</title>
<path fill="none" stroke="#7b8894" d="M539.83,-645.94C539.63,-634.22 538.55,-620.71 536.48,-602.26"/>
<polygon fill="#7b8894" stroke="#7b8894" points="539.94,-601.68 535.31,-592.15 532.98,-602.49 539.94,-601.68"/>
</g>
<!-- fsktqloq -->
<g id="node9" class="node">
<title>fsktqloq</title>
<image xlink:href="assets/k8s/network/svc.png" width="86px" height="86px" preserveAspectRatio="xMinYMin meet" x="332" y="-754"/>
<text text-anchor="middle" x="375" y="-649" font-family="Times,serif" font-size="10.00">myplone&#45;backend&#45;director</text>
</g>
<!-- vtcignbc -->
<g id="node10" class="node">
<title>vtcignbc</title>
<image xlink:href="assets/k8s/network/svc.png" width="86px" height="86px" preserveAspectRatio="xMinYMin meet" x="174" y="-754"/>
<text text-anchor="middle" x="217" y="-649" font-family="Times,serif" font-size="10.00">myplone&#45;postgresql</text>
</g>
<!-- wyisrrrj -->
<g id="node11" class="node">
<title>wyisrrrj</title>
<image xlink:href="assets/k8s/network/svc.png" width="86px" height="86px" preserveAspectRatio="xMinYMin meet" x="16" y="-754"/>
<text text-anchor="middle" x="59" y="-649" font-family="Times,serif" font-size="10.00">myplone&#45;backend</text>
</g>
</g>
</svg>
