<?xml version="1.0" encoding="UTF-8" standalone="no"?>
<!DOCTYPE svg PUBLIC "-//W3C//DTD SVG 1.1//EN"
 "http://www.w3.org/Graphics/SVG/1.1/DTD/svg11.dtd">
<!-- Generated by graphviz version 2.43.0 (0)
 -->
<!-- Title: root Pages: 1 -->
<svg width="1772pt" height="1099pt"
 viewBox="0.00 0.00 1771.50 1099.00" xmlns="http://www.w3.org/2000/svg" xmlns:xlink="http://www.w3.org/1999/xlink">
<g id="graph0" class="graph" transform="scale(1 1) rotate(0) translate(144 955)">
<title>root</title>
<polygon fill="white" stroke="transparent" points="-144,144 -144,-955 1627.5,-955 1627.5,144 -144,144"/>
<text text-anchor="middle" x="741.75" y="-7.6" font-family="Sans-Serif" font-size="13.00" fill="#2d3436">helm plone6&#45;volto&#45;pg&#45;nginx&#45;varnish</text>
<g id="clust1" class="cluster">
<title>cluster_plone&#45;helm</title>
<path fill="#e0ecf4" stroke="#aeb6be" d="M121.5,-30C121.5,-30 1463.5,-30 1463.5,-30 1469.5,-30 1475.5,-36 1475.5,-42 1475.5,-42 1475.5,-791 1475.5,-791 1475.5,-797 1469.5,-803 1463.5,-803 1463.5,-803 121.5,-803 121.5,-803 115.5,-803 109.5,-797 109.5,-791 109.5,-791 109.5,-42 109.5,-42 109.5,-36 115.5,-30 121.5,-30"/>
<text text-anchor="middle" x="145.5" y="-791" font-family="Sans-Serif" font-size="10.00" fill="#2d3436">plone&#45;helm</text>
</g>
<g id="clust2" class="cluster">
<title>cluster_myplone&#45;backend</title>
<path fill="#9ebcda" stroke="#aeb6be" d="M1061.5,-426C1061.5,-426 1139.5,-426 1139.5,-426 1145.5,-426 1151.5,-432 1151.5,-438 1151.5,-438 1151.5,-607 1151.5,-607 1151.5,-613 1145.5,-619 1139.5,-619 1139.5,-619 1061.5,-619 1061.5,-619 1055.5,-619 1049.5,-613 1049.5,-607 1049.5,-607 1049.5,-438 1049.5,-438 1049.5,-432 1055.5,-426 1061.5,-426"/>
<text text-anchor="middle" x="1065" y="-607" font-family="Sans-Serif" font-size="10.00" fill="#2d3436">sts</text>
</g>
<g id="clust4" class="cluster">
<title>cluster_myplone&#45;nginx&#45;55ddd8f5cb</title>
<path fill="#9ebcda" stroke="#aeb6be" d="M824.5,-214C824.5,-214 1060.5,-214 1060.5,-214 1066.5,-214 1072.5,-220 1072.5,-226 1072.5,-226 1072.5,-395 1072.5,-395 1072.5,-401 1066.5,-407 1060.5,-407 1060.5,-407 824.5,-407 824.5,-407 818.5,-407 812.5,-401 812.5,-395 812.5,-395 812.5,-226 812.5,-226 812.5,-220 818.5,-214 824.5,-214"/>
<text text-anchor="middle" x="825.5" y="-395" font-family="Sans-Serif" font-size="10.00" fill="#2d3436">rs</text>
</g>
<g id="clust3" class="cluster">
<title>cluster_myplone&#45;frontend&#45;5f974789f5</title>
<path fill="#9ebcda" stroke="#aeb6be" d="M508.5,-214C508.5,-214 744.5,-214 744.5,-214 750.5,-214 756.5,-220 756.5,-226 756.5,-226 756.5,-395 756.5,-395 756.5,-401 750.5,-407 744.5,-407 744.5,-407 508.5,-407 508.5,-407 502.5,-407 496.5,-401 496.5,-395 496.5,-395 496.5,-226 496.5,-226 496.5,-220 502.5,-214 508.5,-214"/>
<text text-anchor="middle" x="509.5" y="-395" font-family="Sans-Serif" font-size="10.00" fill="#2d3436">rs</text>
</g>
<g id="clust5" class="cluster">
<title>cluster_myplone&#45;postgresql</title>
<path fill="#9ebcda" stroke="#aeb6be" d="M1377.5,-426C1377.5,-426 1455.5,-426 1455.5,-426 1461.5,-426 1467.5,-432 1467.5,-438 1467.5,-438 1467.5,-607 1467.5,-607 1467.5,-613 1461.5,-619 1455.5,-619 1455.5,-619 1377.5,-619 1377.5,-619 1371.5,-619 1365.5,-613 1365.5,-607 1365.5,-607 1365.5,-438 1365.5,-438 1365.5,-432 1371.5,-426 1377.5,-426"/>
<text text-anchor="middle" x="1381" y="-607" font-family="Sans-Serif" font-size="10.00" fill="#2d3436">sts</text>
</g>
<g id="clust6" class="cluster">
<title>cluster_myplone&#45;varnish</title>
<path fill="#9ebcda" stroke="#aeb6be" d="M1219.5,-426C1219.5,-426 1297.5,-426 1297.5,-426 1303.5,-426 1309.5,-432 1309.5,-438 1309.5,-438 1309.5,-607 1309.5,-607 1309.5,-613 1303.5,-619 1297.5,-619 1297.5,-619 1219.5,-619 1219.5,-619 1213.5,-619 1207.5,-613 1207.5,-607 1207.5,-607 1207.5,-438 1207.5,-438 1207.5,-432 1213.5,-426 1219.5,-426"/>
<text text-anchor="middle" x="1223" y="-607" font-family="Sans-Serif" font-size="10.00" fill="#2d3436">sts</text>
</g>
<!-- uzetcaad -->
<g id="node1" class="node">
<title>uzetcaad</title>
<image xlink:href="assets/apps/network/internet.png" width="101px" height="101px" preserveAspectRatio="xMinYMin meet" x="0" y="-563.5"/>
<text text-anchor="middle" x="50.5" y="-451.6" font-family="Sans-Serif" font-size="13.00" fill="#2d3436">Internet</text>
</g>
<!-- pdjzwsfn -->
<g id="node2" class="node">
<title>pdjzwsfn</title>
<image xlink:href="assets/k8s/network/ing.png" width="86px" height="86px" preserveAspectRatio="xMinYMin meet" x="232.5" y="-344"/>
<text text-anchor="middle" x="275.5" y="-225" font-family="Times,serif" font-size="10.00">myplone&#45;nginx</text>
</g>
<!-- uzetcaad&#45;&gt;pdjzwsfn -->
<g id="edge1" class="edge">
<title>uzetcaad&#45;&gt;pdjzwsfn</title>
<path fill="none" stroke="#7b8894" d="M83.45,-447.94C108.38,-406.32 136.24,-385.57 223.6,-332.36"/>
<polygon fill="#7b8894" stroke="#7b8894" points="225.52,-335.29 232.25,-327.11 221.88,-329.31 225.52,-335.29"/>
<text text-anchor="middle" x="134.68" y="-380.53" font-family="Sans-Serif" font-size="6.00" fill="#2d3436">172.19.0.2</text>
</g>
<!-- qisahelq -->
<g id="node4" class="node">
<title>qisahelq</title>
<image xlink:href="assets/k8s/network/svc.png" width="86px" height="86px" preserveAspectRatio="xMinYMin meet" x="820.5" y="-146"/>
<text text-anchor="middle" x="863.5" y="-41" font-family="Times,serif" font-size="10.00">myplone&#45;nginx</text>
</g>
<!-- pdjzwsfn&#45;&gt;qisahelq -->
<g id="edge12" class="edge">
<title>pdjzwsfn&#45;&gt;qisahelq</title>
<path fill="none" stroke="#7b8894" d="M318.68,-262.05C484.21,-113.73 515.19,-105.56 810.12,-103.35"/>
<polygon fill="#7b8894" stroke="#7b8894" points="810.3,-106.85 820.27,-103.27 810.25,-99.85 810.3,-106.85"/>
</g>
<!-- fiwybisn -->
<g id="node3" class="node">
<title>fiwybisn</title>
<image xlink:href="assets/k8s/compute/pod.png" width="86px" height="86px" preserveAspectRatio="xMinYMin meet" x="978.5" y="-344"/>
<text text-anchor="middle" x="1021.5" y="-247" font-family="Times,serif" font-size="10.00">myplone&#45;nginx&#45;</text>
<text text-anchor="middle" x="1021.5" y="-236" font-family="Times,serif" font-size="10.00">55ddd8f5cb&#45;</text>
<text text-anchor="middle" x="1021.5" y="-225" font-family="Times,serif" font-size="10.00">qwsv5</text>
</g>
<!-- fiwybisn&#45;&gt;qisahelq -->
<g id="edge2" class="edge">
<title>fiwybisn&#45;&gt;qisahelq</title>
<path fill="none" stroke="#7b8894" d="M990.4,-212.56C972.37,-170.73 953.96,-154.09 906.71,-126.94"/>
<polygon fill="#7b8894" stroke="#7b8894" points="987.2,-213.98 994.25,-221.88 993.67,-211.31 987.2,-213.98"/>
</g>
<!-- wdssqmhz -->
<g id="node5" class="node">
<title>wdssqmhz</title>
<image xlink:href="assets/k8s/compute/rs.png" width="86px" height="86px" preserveAspectRatio="xMinYMin meet" x="899.5" y="-556"/>
<text text-anchor="middle" x="942.5" y="-462" font-family="Times,serif" font-size="10.00">myplone&#45;nginx&#45;</text>
<text text-anchor="middle" x="942.5" y="-451" font-family="Times,serif" font-size="10.00">55ddd8f5cb</text>
</g>
<!-- wdssqmhz&#45;&gt;fiwybisn -->
<g id="edge5" class="edge">
<title>wdssqmhz&#45;&gt;fiwybisn</title>
<path fill="none" stroke="#7b8894" d="M985.54,-457.19C1005.81,-429.48 1015.94,-411.17 1020.46,-390.06"/>
<polygon fill="#7b8894" stroke="#7b8894" points="1023.92,-390.57 1022.16,-380.12 1017.02,-389.39 1023.92,-390.57"/>
</g>
<!-- ikftldbw -->
<g id="node6" class="node">
<title>ikftldbw</title>
<image xlink:href="assets/k8s/compute/pod.png" width="86px" height="86px" preserveAspectRatio="xMinYMin meet" x="820.5" y="-344"/>
<text text-anchor="middle" x="863.5" y="-247" font-family="Times,serif" font-size="10.00">myplone&#45;nginx&#45;</text>
<text text-anchor="middle" x="863.5" y="-236" font-family="Times,serif" font-size="10.00">55ddd8f5cb&#45;</text>
<text text-anchor="middle" x="863.5" y="-225" font-family="Times,serif" font-size="10.00">fjltv</text>
</g>
<!-- wdssqmhz&#45;&gt;ikftldbw -->
<g id="edge3" class="edge">
<title>wdssqmhz&#45;&gt;ikftldbw</title>
<path fill="none" stroke="#7b8894" d="M944.43,-447.78C943.29,-414.67 935.91,-394.89 912.8,-363.04"/>
<polygon fill="#7b8894" stroke="#7b8894" points="915.35,-360.61 906.58,-354.66 909.73,-364.78 915.35,-360.61"/>
</g>
<!-- ikftldbw&#45;&gt;qisahelq -->
<g id="edge7" class="edge">
<title>ikftldbw&#45;&gt;qisahelq</title>
<path fill="none" stroke="#7b8894" d="M875.79,-211.82C877.82,-193.4 878.55,-179.93 877.97,-168"/>
<polygon fill="#7b8894" stroke="#7b8894" points="872.29,-211.59 874.61,-221.92 879.25,-212.4 872.29,-211.59"/>
</g>
<!-- fuilyera -->
<g id="node7" class="node">
<title>fuilyera</title>
<image xlink:href="assets/k8s/compute/rs.png" width="86px" height="86px" preserveAspectRatio="xMinYMin meet" x="662.5" y="-556"/>
<text text-anchor="middle" x="705.5" y="-462" font-family="Times,serif" font-size="10.00">myplone&#45;frontend&#45;</text>
<text text-anchor="middle" x="705.5" y="-451" font-family="Times,serif" font-size="10.00">5f974789f5</text>
</g>
<!-- foevidse -->
<g id="node8" class="node">
<title>foevidse</title>
<image xlink:href="assets/k8s/compute/pod.png" width="86px" height="86px" preserveAspectRatio="xMinYMin meet" x="662.5" y="-344"/>
<text text-anchor="middle" x="705.5" y="-247" font-family="Times,serif" font-size="10.00">myplone&#45;frontend&#45;</text>
<text text-anchor="middle" x="705.5" y="-236" font-family="Times,serif" font-size="10.00">5f974789f5&#45;</text>
<text text-anchor="middle" x="705.5" y="-225" font-family="Times,serif" font-size="10.00">7c6nv</text>
</g>
<!-- fuilyera&#45;&gt;foevidse -->
<g id="edge4" class="edge">
<title>fuilyera&#45;&gt;foevidse</title>
<path fill="none" stroke="#7b8894" d="M683.55,-447.85C676.45,-423.95 673.64,-407.1 675.12,-390.14"/>
<polygon fill="#7b8894" stroke="#7b8894" points="678.61,-390.46 676.49,-380.08 671.67,-389.52 678.61,-390.46"/>
</g>
<!-- jdcaeegd -->
<g id="node9" class="node">
<title>jdcaeegd</title>
<image xlink:href="assets/k8s/compute/pod.png" width="86px" height="86px" preserveAspectRatio="xMinYMin meet" x="504.5" y="-344"/>
<text text-anchor="middle" x="547.5" y="-247" font-family="Times,serif" font-size="10.00">myplone&#45;frontend&#45;</text>
<text text-anchor="middle" x="547.5" y="-236" font-family="Times,serif" font-size="10.00">5f974789f5&#45;</text>
<text text-anchor="middle" x="547.5" y="-225" font-family="Times,serif" font-size="10.00">wcjjx</text>
</g>
<!-- fuilyera&#45;&gt;jdcaeegd -->
<g id="edge15" class="edge">
<title>fuilyera&#45;&gt;jdcaeegd</title>
<path fill="none" stroke="#7b8894" d="M662.27,-476.63C614.91,-436.38 591.98,-414.44 577.4,-389.25"/>
<polygon fill="#7b8894" stroke="#7b8894" points="580.35,-387.35 572.56,-380.17 574.17,-390.64 580.35,-387.35"/>
</g>
<!-- yhrqfvvc -->
<g id="node10" class="node">
<title>yhrqfvvc</title>
<image xlink:href="assets/k8s/network/svc.png" width="86px" height="86px" preserveAspectRatio="xMinYMin meet" x="583.5" y="-146"/>
<text text-anchor="middle" x="626.5" y="-41" font-family="Times,serif" font-size="10.00">myplone&#45;frontend</text>
</g>
<!-- foevidse&#45;&gt;yhrqfvvc -->
<g id="edge11" class="edge">
<title>foevidse&#45;&gt;yhrqfvvc</title>
<path fill="none" stroke="#7b8894" d="M671.1,-211.97C663.85,-193.31 658.47,-179.62 653.82,-168.01"/>
<polygon fill="#7b8894" stroke="#7b8894" points="667.93,-213.49 674.81,-221.54 674.46,-210.95 667.93,-213.49"/>
</g>
<!-- jdcaeegd&#45;&gt;yhrqfvvc -->
<g id="edge6" class="edge">
<title>jdcaeegd&#45;&gt;yhrqfvvc</title>
<path fill="none" stroke="#7b8894" d="M558.76,-211.74C563.9,-183.31 570.47,-166.68 583.46,-149.34"/>
<polygon fill="#7b8894" stroke="#7b8894" points="555.27,-211.4 557.06,-221.85 562.17,-212.56 555.27,-211.4"/>
</g>
<!-- ggpgxjhp -->
<g id="node11" class="node">
<title>ggpgxjhp</title>
<image xlink:href="assets/k8s/compute/sts.png" width="86px" height="86px" preserveAspectRatio="xMinYMin meet" x="1381.5" y="-754"/>
<text text-anchor="middle" x="1424.5" y="-649" font-family="Times,serif" font-size="10.00">myplone&#45;postgresql</text>
</g>
<!-- ewpnbyib -->
<g id="node12" class="node">
<title>ewpnbyib</title>
<image xlink:href="assets/k8s/compute/pod.png" width="86px" height="86px" preserveAspectRatio="xMinYMin meet" x="1373.5" y="-556"/>
<text text-anchor="middle" x="1416.5" y="-448" font-family="Times,serif" font-size="10.00">myplone&#45;postgresql&#45;</text>
<text text-anchor="middle" x="1416.5" y="-437" font-family="Times,serif" font-size="10.00">0</text>
</g>
<!-- ggpgxjhp&#45;&gt;ewpnbyib -->
<g id="edge8" class="edge">
<title>ggpgxjhp&#45;&gt;ewpnbyib</title>
<path fill="none" stroke="#7b8894" d="M1446.76,-645.78C1449.87,-630.99 1449.97,-618.09 1446.85,-602.41"/>
<polygon fill="#7b8894" stroke="#7b8894" points="1450.16,-601.2 1444.49,-592.25 1443.34,-602.78 1450.16,-601.2"/>
</g>
<!-- cyumljxd -->
<g id="node13" class="node">
<title>cyumljxd</title>
<image xlink:href="assets/k8s/compute/sts.png" width="86px" height="86px" preserveAspectRatio="xMinYMin meet" x="1223.5" y="-754"/>
<text text-anchor="middle" x="1266.5" y="-649" font-family="Times,serif" font-size="10.00">myplone&#45;varnish</text>
</g>
<!-- xyncgrjd -->
<g id="node14" class="node">
<title>xyncgrjd</title>
<image xlink:href="assets/k8s/compute/pod.png" width="86px" height="86px" preserveAspectRatio="xMinYMin meet" x="1215.5" y="-556"/>
<text text-anchor="middle" x="1258.5" y="-448" font-family="Times,serif" font-size="10.00">myplone&#45;varnish&#45;</text>
<text text-anchor="middle" x="1258.5" y="-437" font-family="Times,serif" font-size="10.00">0</text>
</g>
<!-- cyumljxd&#45;&gt;xyncgrjd -->
<g id="edge9" class="edge">
<title>cyumljxd&#45;&gt;xyncgrjd</title>
<path fill="none" stroke="#7b8894" d="M1288.47,-645.97C1291.26,-631.5 1291.07,-618.5 1287.69,-602.22"/>
<polygon fill="#7b8894" stroke="#7b8894" points="1291.04,-601.15 1285.34,-592.22 1284.22,-602.75 1291.04,-601.15"/>
</g>
<!-- wuknsgup -->
<g id="node15" class="node">
<title>wuknsgup</title>
<image xlink:href="assets/k8s/compute/sts.png" width="86px" height="86px" preserveAspectRatio="xMinYMin meet" x="1065.5" y="-754"/>
<text text-anchor="middle" x="1108.5" y="-649" font-family="Times,serif" font-size="10.00">myplone&#45;backend</text>
</g>
<!-- zlsgghro -->
<g id="node16" class="node">
<title>zlsgghro</title>
<image xlink:href="assets/k8s/compute/pod.png" width="86px" height="86px" preserveAspectRatio="xMinYMin meet" x="1057.5" y="-556"/>
<text text-anchor="middle" x="1100.5" y="-448" font-family="Times,serif" font-size="10.00">myplone&#45;backend&#45;</text>
<text text-anchor="middle" x="1100.5" y="-437" font-family="Times,serif" font-size="10.00">0</text>
</g>
<!-- wuknsgup&#45;&gt;zlsgghro -->
<g id="edge10" class="edge">
<title>wuknsgup&#45;&gt;zlsgghro</title>
<path fill="none" stroke="#7b8894" d="M1129.55,-645.86C1131.66,-632.14 1131.02,-619.1 1127.43,-602.12"/>
<polygon fill="#7b8894" stroke="#7b8894" points="1130.81,-601.21 1125.14,-592.26 1124,-602.79 1130.81,-601.21"/>
</g>
<!-- gowwoizl -->
<g id="node17" class="node">
<title>gowwoizl</title>
<image xlink:href="assets/k8s/compute/deploy.png" width="86px" height="86px" preserveAspectRatio="xMinYMin meet" x="907.5" y="-754"/>
<text text-anchor="middle" x="950.5" y="-649" font-family="Times,serif" font-size="10.00">myplone&#45;nginx</text>
</g>
<!-- gowwoizl&#45;&gt;wdssqmhz -->
<g id="edge13" class="edge">
<title>gowwoizl&#45;&gt;wdssqmhz</title>
<path fill="none" stroke="#7b8894" d="M967.81,-645.89C968.93,-630.22 966.83,-613.54 961.2,-588.07"/>
<polygon fill="#7b8894" stroke="#7b8894" points="964.6,-587.24 958.96,-578.27 957.77,-588.8 964.6,-587.24"/>
</g>
<!-- ogrwhgop -->
<g id="node18" class="node">
<title>ogrwhgop</title>
<image xlink:href="assets/k8s/compute/deploy.png" width="86px" height="86px" preserveAspectRatio="xMinYMin meet" x="749.5" y="-754"/>
<text text-anchor="middle" x="792.5" y="-649" font-family="Times,serif" font-size="10.00">myplone&#45;frontend</text>
</g>
<!-- ogrwhgop&#45;&gt;fuilyera -->
<g id="edge14" class="edge">
<title>ogrwhgop&#45;&gt;fuilyera</title>
<path fill="none" stroke="#7b8894" d="M750.84,-645.86C744.49,-631.64 738.08,-613.89 729.44,-587.69"/>
<polygon fill="#7b8894" stroke="#7b8894" points="732.72,-586.48 726.28,-578.06 726.07,-588.66 732.72,-586.48"/>
</g>
<!-- bixjgdnn -->
<g id="node19" class="node">
<title>bixjgdnn</title>
<image xlink:href="assets/k8s/network/svc.png" width="86px" height="86px" preserveAspectRatio="xMinYMin meet" x="591.5" y="-754"/>
<text text-anchor="middle" x="634.5" y="-649" font-family="Times,serif" font-size="10.00">myplone&#45;varnish</text>
</g>
<!-- cyzyhlcw -->
<g id="node20" class="node">
<title>cyzyhlcw</title>
<image xlink:href="assets/k8s/network/svc.png" width="86px" height="86px" preserveAspectRatio="xMinYMin meet" x="433.5" y="-754"/>
<text text-anchor="middle" x="476.5" y="-649" font-family="Times,serif" font-size="10.00">myplone&#45;backend&#45;director</text>
</g>
<!-- pbddirhu -->
<g id="node21" class="node">
<title>pbddirhu</title>
<image xlink:href="assets/k8s/network/svc.png" width="86px" height="86px" preserveAspectRatio="xMinYMin meet" x="275.5" y="-754"/>
<text text-anchor="middle" x="318.5" y="-649" font-family="Times,serif" font-size="10.00">myplone&#45;backend</text>
</g>
<!-- xtlaidgk -->
<g id="node22" class="node">
<title>xtlaidgk</title>
<image xlink:href="assets/k8s/network/svc.png" width="86px" height="86px" preserveAspectRatio="xMinYMin meet" x="117.5" y="-754"/>
<text text-anchor="middle" x="160.5" y="-649" font-family="Times,serif" font-size="10.00">myplone&#45;postgresql</text>
</g>
</g>
</svg>
